Coordinates
version=1
nRows=9
nColumns=24
inDegrees=yes

Units are S.I. units (second, meters, Newtons, ...)
Angles are in degrees.

endheader
time	pelvis_tilt	pelvis_list	pelvis_rotation	pelvis_tx	pelvis_ty	pelvis_tz	hip_flexion_r	hip_adduction_r	hip_rotation_r	knee_angle_r	ankle_angle_r	subtalar_angle_r	mtp_angle_r	hip_flexion_l	hip_adduction_l	hip_rotation_l	knee_angle_l	ankle_angle_l	subtalar_angle_l	mtp_angle_l	lumbar_extension	lumbar_bending	lumbar_rotation
      5.63000000	     49.65352464	      1.68435136	     -3.02377540	      0.75879411	      0.96326276	     -0.27752522	     17.01608409	    -14.67319806	      8.49082771	    -62.43683374	      7.07229912	     15.84587104	    -32.22105742	     13.46461875	    -10.46068632	      4.93849451	    -72.13928584	      6.44452208	     10.24893624	    -44.03188081	      0.00000000	      0.00000000	      0.00000000
      5.64000000	     49.66595526	      1.68015137	     -3.02524827	      0.75878524	      0.96327259	     -0.27751602	     17.00778592	    -14.67044837	      8.49159977	    -62.43674438	      7.07094433	     15.85131744	    -32.24316205	     13.48442407	    -10.44561003	      4.96041353	    -72.31845997	      6.43538019	     10.20822502	    -44.03844797	      0.00000000	      0.00000000	      0.00000000
      5.65000000	     49.67761480	      1.67626023	     -3.02909361	      0.75878213	      0.96328791	     -0.27750364	     16.99838771	    -14.66799635	      8.49243218	    -62.43677501	      7.07157606	     15.85850454	    -32.25649475	     13.49257072	    -10.42077499	      4.94150114	    -72.43173911	      6.45261497	     10.18190778	    -44.04691503	      0.00000000	      0.00000000	      0.00000000
      5.66000000	     49.68758145	      1.67276893	     -3.03430520	      0.75877718	      0.96329108	     -0.27748987	     16.98837742	    -14.66543872	      8.49293084	    -62.43750086	      7.07392023	     15.86674874	    -32.25962469	     13.48605201	    -10.38614138	      4.88140817	    -72.47550880	      6.49318829	     10.17112647	    -44.06118580	      0.00000000	      0.00000000	      0.00000000
      5.67000000	     49.69687169	      1.66944676	     -3.03996977	      0.75876792	      0.96328940	     -0.27747563	     16.97728302	    -14.66271522	      8.49261551	    -62.43944937	      7.07739345	     15.87449538	    -32.25259930	     13.46488985	    -10.34193029	      4.77919892	    -72.44741025	      6.54909006	     10.17752664	    -44.08190209	      0.00000000	      0.00000000	      0.00000000
      5.68000000	     49.70801130	      1.66576575	     -3.04548277	      0.75876470	      0.96330532	     -0.27745931	     16.96361904	    -14.66018921	      8.49109196	    -62.44266517	      7.08148464	     15.87939922	    -32.23678837	     13.43220203	    -10.28874148	      4.63391765	    -72.34694762	      6.60952659	     10.20318575	    -44.10611798	      0.00000000	      0.00000000	      0.00000000
      5.69000000	     49.72281651	      1.66143607	     -3.05025907	      0.75877182	      0.96333715	     -0.27744147	     16.94558148	    -14.65824131	      8.48809834	    -62.44629163	      7.08613011	     15.87858432	    -32.21455111	     13.39171297	    -10.22751380	      4.44556714	    -72.17630356	      6.66342422	     10.25069459	    -44.12753305	      0.00000000	      0.00000000	      0.00000000
      5.70000000	     49.74128914	      1.65700436	     -3.05389411	      0.75877796	      0.96337031	     -0.27742540	     16.92184936	    -14.65691465	      8.48355045	    -62.44865091	      7.09181242	     15.86910518	    -32.18882519	     13.34605117	    -10.15943087	      4.21604653	    -71.94023777	      6.70138621	     10.32340990	    -44.13723617	      0.00000000	      0.00000000	      0.00000000
      5.71000000	     49.76238205	      1.65371798	     -3.05678127	      0.75877147	      0.96340956	     -0.27741216	     16.89180269	    -14.65586871	      8.47762548	    -62.44802839	      7.09929067	     15.84858319	    -32.16272955	     13.29722475	    -10.08549495	      3.94928728	    -71.64441756	      6.71660325	     10.42560817	    -44.12482263	      0.00000000	      0.00000000	      0.00000000
